<svg width="256" height="259" viewBox="0 0 256 259" fill="none" xmlns="http://www.w3.org/2000/svg">
<path d="M176.807 0.207391C175.66 0.0750948 173.749 -0.0131025 171.736 0.00159706C169.957 0.0162966 167.767 0.104494 166.885 0.22209C166.003 0.324987 164.533 0.56018 163.651 0.736574C162.77 0.912969 161.138 1.30986 160.05 1.63325C158.963 1.95664 157.243 2.54462 156.229 2.95621C155.214 3.36779 153.892 3.95578 153.289 4.24977C152.686 4.55846 151.599 5.14644 150.864 5.57273C150.129 5.99901 148.879 6.80749 148.071 7.35137C147.262 7.89525 145.969 8.86542 145.205 9.49751C144.44 10.1296 114.014 38.8084 77.5912 73.22C40.4626 108.293 10.9184 136.311 10.3452 137.001C9.77192 137.678 9.06639 138.53 8.75771 138.898C8.46374 139.265 8.21387 139.647 8.21387 139.736C8.21387 139.838 8.86061 140.206 9.63963 140.544C10.4334 140.882 11.6386 141.338 12.3295 141.573C13.0203 141.808 14.1374 142.132 14.8282 142.293C15.5191 142.44 16.9742 142.646 18.0619 142.734C19.5465 142.867 20.5607 142.867 22.104 142.749C23.2358 142.646 25.1907 142.411 26.4401 142.19C27.6895 141.985 30.0119 141.485 31.5846 141.103C33.1574 140.706 35.9354 139.941 37.758 139.412C39.5807 138.868 46.2244 136.722 52.5301 134.635C58.8358 132.547 65.4208 130.401 67.1552 129.872C68.8896 129.343 71.3737 128.623 72.6672 128.255C73.9606 127.888 76.1066 127.329 77.4442 126.991C78.7818 126.668 81.0307 126.168 82.4417 125.889C83.8528 125.609 85.6754 125.286 86.4838 125.154C87.2923 125.036 88.8062 124.83 89.8645 124.698C90.9228 124.58 93.4951 124.433 95.597 124.389C97.9928 124.33 100.242 124.374 101.623 124.477C102.829 124.58 104.784 124.786 105.959 124.948C107.135 125.109 109.046 125.448 110.222 125.683C111.398 125.933 113.382 126.388 114.632 126.712C115.881 127.035 118.042 127.667 119.409 128.093C120.776 128.534 123.069 129.314 124.48 129.828C125.891 130.357 128.213 131.239 129.624 131.812C131.035 132.371 133.49 133.4 135.063 134.091C136.635 134.782 139.443 136.046 141.31 136.913C143.176 137.78 147.233 139.765 150.349 141.338C153.465 142.896 158.654 145.571 161.888 147.276C165.121 148.982 169.619 151.289 171.883 152.421C174.146 153.538 177.159 154.964 178.57 155.582C179.982 156.214 182.201 157.14 183.495 157.64C184.788 158.154 186.846 158.904 188.051 159.33C189.256 159.742 191.476 160.432 192.975 160.873C194.474 161.3 196.885 161.932 198.34 162.255C199.795 162.593 202.206 163.093 203.705 163.372C205.204 163.652 207.644 164.034 209.144 164.24C210.643 164.445 212.789 164.71 213.921 164.828C215.052 164.96 217.36 165.151 219.065 165.283C220.77 165.401 223.636 165.563 225.459 165.651C227.282 165.724 232.044 165.783 236.042 165.783C240.04 165.768 243.744 165.724 244.273 165.666L245.243 165.577C220.608 61.9014 213.244 31.0764 212.98 30.1945C212.715 29.3125 212.186 27.7543 211.775 26.7401C211.378 25.7258 210.672 24.1383 210.202 23.2122C209.731 22.2861 208.923 20.8603 208.423 20.0518C207.909 19.2433 207.13 18.0526 206.674 17.4206C206.204 16.7885 205.234 15.5537 204.499 14.7011C203.764 13.8486 202.544 12.555 201.78 11.8347C201.015 11.0998 199.736 9.98259 198.928 9.35051C198.12 8.70373 196.9 7.79236 196.209 7.33667C195.518 6.88099 194.298 6.11661 193.49 5.64622C192.681 5.17584 191.329 4.47026 190.476 4.07337C189.624 3.67648 188.08 3.0297 187.022 2.63282C185.964 2.23593 184.215 1.67735 183.127 1.39805C182.039 1.11876 180.584 0.780673 179.893 0.648377C179.203 0.516081 177.821 0.324987 176.807 0.207391Z" fill="#36FF8B"/>
<path d="M101.917 124.492C100.947 124.419 98.6396 124.36 96.7729 124.374C94.9061 124.389 93.1276 124.419 92.8042 124.448C92.4809 124.463 91.4814 124.566 90.5994 124.639C89.7175 124.727 88.086 124.933 86.9983 125.08C85.9106 125.242 83.8528 125.609 82.4417 125.889C81.0307 126.168 78.7818 126.668 77.4442 126.991C76.1066 127.329 73.9606 127.888 72.6672 128.255C71.3737 128.623 68.8896 129.343 67.1552 129.872C65.4208 130.401 58.8358 132.547 52.5301 134.635C46.2244 136.722 39.5806 138.868 37.758 139.412C35.9354 139.941 33.1574 140.706 31.5846 141.103C30.0119 141.485 27.6895 141.985 26.4401 142.19C25.1907 142.411 23.2358 142.646 22.104 142.749C20.5901 142.866 19.5318 142.866 18.1354 142.749C17.0918 142.661 15.7248 142.484 15.1222 142.352C14.5196 142.234 13.3878 141.926 12.6234 141.676C11.8591 141.426 10.5215 140.911 9.66902 140.529L8.11097 139.853C6.50883 142.249 5.81799 143.337 5.52402 143.822C5.23005 144.307 4.56861 145.601 4.05416 146.688C3.52501 147.776 2.83418 149.393 2.51081 150.29C2.18744 151.172 1.71709 152.671 1.46721 153.597C1.21734 154.523 0.893966 155.92 0.732282 156.684C0.570597 157.448 0.33542 159.036 0.203133 160.212C-0.00264738 161.888 -0.0320445 163.108 0.0267498 165.871C0.0855441 168.4 0.188434 169.943 0.408913 171.31C0.585296 172.368 0.952761 174.177 1.24673 175.352C1.5407 176.528 2.01106 178.145 2.29033 178.954C2.56961 179.762 3.06936 181.056 3.39273 181.82C3.71609 182.585 4.24524 183.746 4.58331 184.393C4.90668 185.039 5.56812 186.23 6.05317 187.039C6.53822 187.847 7.39074 189.141 7.93459 189.905C8.47844 190.669 9.44854 191.934 10.0953 192.698C10.742 193.462 11.9914 194.785 12.8586 195.638C13.7405 196.49 14.9899 197.622 15.6366 198.137C16.2834 198.666 17.6945 199.695 18.7968 200.415C19.8845 201.15 21.766 202.253 22.9859 202.87C24.1912 203.487 25.9551 204.281 26.8811 204.649C27.8071 205.016 67.5668 216.967 115.22 231.211C162.872 245.455 202.661 257.302 203.632 257.538C204.602 257.773 206.292 258.096 207.38 258.258C208.467 258.405 210.29 258.596 211.422 258.684C212.774 258.787 214.156 258.787 215.464 258.684C216.552 258.611 218.213 258.449 219.139 258.317C220.065 258.199 221.461 257.964 222.225 257.788C222.99 257.626 224.386 257.273 225.312 257.008C226.238 256.729 227.928 256.141 229.06 255.686C230.192 255.23 231.941 254.436 232.955 253.907C233.969 253.378 235.719 252.334 236.85 251.57C237.982 250.82 239.731 249.512 240.745 248.659C241.76 247.821 243.244 246.439 244.053 245.602C244.846 244.764 246.037 243.411 246.684 242.603C247.33 241.794 248.448 240.236 249.153 239.149C249.873 238.061 250.99 236.106 251.622 234.812C252.254 233.519 253.092 231.608 253.474 230.549C253.842 229.491 254.415 227.639 254.709 226.433C255.018 225.213 255.371 223.538 255.503 222.685C255.635 221.832 255.812 220.245 255.9 219.157C255.988 218.069 256.032 216.188 255.973 214.968C255.929 213.748 255.797 211.969 255.665 210.999C255.547 210.029 255.282 208.441 255.077 207.471C254.871 206.501 252.563 196.711 249.947 185.716L245.199 165.724C232.691 165.798 227.502 165.739 225.606 165.651C223.71 165.577 220.77 165.401 219.065 165.283C217.36 165.151 215.052 164.96 213.921 164.828C212.789 164.71 210.643 164.445 209.144 164.24C207.644 164.034 205.204 163.652 203.705 163.372C202.206 163.093 199.795 162.593 198.34 162.255C196.885 161.932 194.474 161.3 192.975 160.873C191.476 160.432 189.271 159.742 188.051 159.33C186.846 158.904 184.788 158.154 183.494 157.64C182.201 157.14 179.982 156.214 178.57 155.582C177.159 154.964 174.146 153.538 171.883 152.421C169.619 151.289 165.121 148.982 161.888 147.276C158.654 145.571 153.465 142.896 150.349 141.338C147.233 139.765 143.176 137.78 141.31 136.913C139.443 136.046 136.635 134.782 135.063 134.091C133.49 133.4 131.035 132.371 129.624 131.812C128.213 131.239 125.891 130.357 124.48 129.828C123.069 129.314 120.776 128.534 119.409 128.093C118.042 127.667 115.881 127.035 114.632 126.712C113.382 126.388 111.398 125.918 110.222 125.683C109.046 125.448 107.106 125.109 105.886 124.948C104.681 124.786 102.887 124.58 101.917 124.492Z" fill="#262626"/>
</svg>
